<?xml version="1.0" encoding="UTF-8" standalone="no"?>
<!-- Created with Inkscape (http://www.inkscape.org/) -->

<svg
   width="48"
   height="48"
   viewBox="0 0 12.7 12.7"
   version="1.1"
   id="svg1"
   xml:space="preserve"
   inkscape:version="1.3.2 (091e20e, 2023-11-25, custom)"
   sodipodi:docname="icon-simpler.svg"
   xmlns:inkscape="http://www.inkscape.org/namespaces/inkscape"
   xmlns:sodipodi="http://sodipodi.sourceforge.net/DTD/sodipodi-0.dtd"
   xmlns="http://www.w3.org/2000/svg"
   xmlns:svg="http://www.w3.org/2000/svg"><sodipodi:namedview
     id="namedview1"
     pagecolor="#ffffff"
     bordercolor="#000000"
     borderopacity="0.25"
     inkscape:showpageshadow="2"
     inkscape:pageopacity="0.0"
     inkscape:pagecheckerboard="false"
     inkscape:deskcolor="#d1d1d1"
     inkscape:document-units="mm"
     inkscape:zoom="9.8635241"
     inkscape:cx="14.649936"
     inkscape:cy="17.133836"
     inkscape:window-width="1600"
     inkscape:window-height="930"
     inkscape:window-x="-6"
     inkscape:window-y="-6"
     inkscape:window-maximized="1"
     inkscape:current-layer="svg1" /><defs
     id="defs1"><inkscape:path-effect
       effect="fillet_chamfer"
       id="path-effect11"
       is_visible="true"
       lpeversion="1"
       nodesatellites_param="F,0,0,1,0,0,0,1 @ F,0,0,1,0,0,0,1 @ F,0,0,1,0,0,0,1 @ F,0,0,1,0,0,0,1 @ F,0,0,1,0,0,0,1 @ F,0,0,1,0,0,0,1 @ F,0,0,1,0,0,0,1 @ F,0,0,1,0,0,0,1"
       radius="0"
       unit="px"
       method="auto"
       mode="F"
       chamfer_steps="1"
       flexible="false"
       use_knot_distance="true"
       apply_no_radius="true"
       apply_with_radius="true"
       only_selected="false"
       hide_knots="false" /><inkscape:path-effect
       effect="fillet_chamfer"
       id="path-effect4"
       is_visible="true"
       lpeversion="1"
       nodesatellites_param="F,0,0,1,0,0,0,1 @ F,0,0,1,0,0,0,1 @ F,0,0,1,0,0,0,1 @ F,0,0,1,0,0,0,1"
       radius="0"
       unit="px"
       method="auto"
       mode="F"
       chamfer_steps="1"
       flexible="false"
       use_knot_distance="true"
       apply_no_radius="true"
       apply_with_radius="true"
       only_selected="false"
       hide_knots="false" /></defs><path
     id="rect11"
     style="display:inline;fill:#800080;stroke:#800080;stroke-width:0.264999;stroke-linejoin:round;stroke-dasharray:none;stroke-opacity:1"
     d="M 0.7286377 1.1492839 C 0.53341399 1.4279688 0.41806234 1.7671903 0.41806234 2.1347534 L 0.41806234 10.565247 C 0.41806234 11.516332 1.1836677 12.281938 2.1347534 12.281938 L 10.565247 12.281938 C 11.516332 12.281938 12.281938 11.516332 12.281938 10.565247 L 12.281938 2.1347534 C 12.281938 1.7671903 12.166586 1.4279688 11.971362 1.1492839 C 10.768015 2.5522095 8.2990921 5.1226847 6.35 5.1226847 C 4.4009079 5.1226847 1.9319852 2.5522095 0.7286377 1.1492839 z " /><path
     id="path12"
     style="display:inline;fill:#ff9955;stroke:#800080;stroke-width:0.264999;stroke-linejoin:round;stroke-dasharray:none;stroke-opacity:1"
     d="M 0.7286377 1.1492839 C 1.9319852 2.5522095 4.4009079 5.1226847 6.35 5.1226847 C 8.2990921 5.1226847 10.768015 2.5522095 11.971362 1.1492839 C 11.661436 0.70685926 11.148769 0.41806234 10.565247 0.41806234 L 2.1347534 0.41806234 C 1.5512308 0.41806234 1.0385639 0.70685926 0.7286377 1.1492839 z " /><g
     inkscape:groupmode="layer"
     id="layer2"
     inkscape:label="Layer 2"
     style="display:inline" /><g
     inkscape:label="Layer 1"
     inkscape:groupmode="layer"
     id="layer1"
     style="display:inline"><path
       style="fill:#000000;stroke:#ffffff;stroke-width:0"
       d="M 0.00688929,0.3142271 H 12.056935"
       id="path2" /><g
       id="g11"
       transform="translate(-0.04256411,1.1266257)"><path
         d="M 4.3571993,4.1403549 H 2.7679762 A 1.0626275,1.0626275 0 0 0 1.708494,5.199837 v 1.77993 c 0,0.1796152 0.1395535,0.3324125 0.3190034,0.3388688 A 0.33108817,0.33108817 0 0 0 2.3706703,6.9877132 V 5.3367419 A 0.13541507,0.13541507 0 0 1 2.4943326,5.200169 0.13243526,0.13243526 0 0 1 2.6355416,5.3326047 v 4.7838913 a 0.38075138,0.38075138 0 0 0 0.3807507,0.380751 0.38075138,0.38075138 0 0 0 0.3807514,-0.380751 V 7.7548445 A 0.16951715,0.16951715 0 0 1 3.5514961,7.5836717 0.16554409,0.16554409 0 0 1 3.7281316,7.7492158 v 2.3672802 a 0.38075138,0.38075138 0 0 0 0.3807517,0.380751 0.38075138,0.38075138 0 0 0 0.3807513,-0.380751 V 5.3367419 A 0.13541507,0.13541507 0 0 1 4.6132955,5.200169 0.13243526,0.13243526 0 0 1 4.7545043,5.3326047 v 1.6474946 c 0,0.1796153 0.1395537,0.3324127 0.3190033,0.3388688 A 0.33108817,0.33108817 0 0 0 5.4166813,6.9877132 V 5.199837 A 1.0626275,1.0626275 0 0 0 4.3571993,4.1403549 Z"
         id="path1"
         style="fill:#ff9955;stroke:#000000;stroke-width:0" /><path
         d="M 10.017152,4.1403549 H 8.4279292 A 1.0626275,1.0626275 0 0 0 7.368447,5.199837 v 1.77993 c 0,0.1796152 0.1395535,0.3324125 0.3190034,0.3388688 A 0.33108817,0.33108817 0 0 0 8.0306233,6.9877132 V 5.3367419 A 0.13541507,0.13541507 0 0 1 8.1542856,5.200169 0.13243526,0.13243526 0 0 1 8.2954946,5.3326047 v 4.7838913 a 0.38075138,0.38075138 0 0 0 0.3807507,0.380751 0.38075138,0.38075138 0 0 0 0.3807514,-0.380751 V 7.7548445 A 0.16951715,0.16951715 0 0 1 9.2114491,7.5836717 0.16554409,0.16554409 0 0 1 9.3880846,7.7492158 v 2.3672802 a 0.38075138,0.38075138 0 0 0 0.3807517,0.380751 0.38075138,0.38075138 0 0 0 0.3807517,-0.380751 V 5.3367419 a 0.13541507,0.13541507 0 0 1 0.123661,-0.1365729 0.13243526,0.13243526 0 0 1 0.141208,0.1324357 v 1.6474946 c 0,0.1796153 0.139554,0.3324127 0.319004,0.3388688 A 0.33108817,0.33108817 0 0 0 11.076634,6.9877132 V 5.199837 A 1.0626275,1.0626275 0 0 0 10.017152,4.1403549 Z"
         id="path11"
         style="fill:#ff9955;stroke:#000000;stroke-width:0" /></g></g></svg>
