<?xml version="1.0" encoding="UTF-8" standalone="no"?>
<!-- Created with Inkscape (http://www.inkscape.org/) -->

<svg
   width="48"
   height="48"
   viewBox="0 0 12.7 12.7"
   version="1.1"
   id="svg1"
   xml:space="preserve"
   inkscape:version="1.3.2 (091e20e, 2023-11-25, custom)"
   sodipodi:docname="icon.svg"
   xmlns:inkscape="http://www.inkscape.org/namespaces/inkscape"
   xmlns:sodipodi="http://sodipodi.sourceforge.net/DTD/sodipodi-0.dtd"
   xmlns="http://www.w3.org/2000/svg"
   xmlns:svg="http://www.w3.org/2000/svg"><sodipodi:namedview
     id="namedview1"
     pagecolor="#ffffff"
     bordercolor="#000000"
     borderopacity="0.25"
     inkscape:showpageshadow="2"
     inkscape:pageopacity="0.0"
     inkscape:pagecheckerboard="false"
     inkscape:deskcolor="#d1d1d1"
     inkscape:document-units="mm"
     inkscape:zoom="9.8635241"
     inkscape:cx="14.649936"
     inkscape:cy="17.133836"
     inkscape:window-width="1600"
     inkscape:window-height="930"
     inkscape:window-x="-6"
     inkscape:window-y="-6"
     inkscape:window-maximized="1"
     inkscape:current-layer="layer3" /><defs
     id="defs1"><inkscape:path-effect
       effect="fillet_chamfer"
       id="path-effect4"
       is_visible="true"
       lpeversion="1"
       nodesatellites_param="F,0,0,1,0,0,0,1 @ F,0,0,1,0,0,0,1 @ F,0,0,1,0,0,0,1 @ F,0,0,1,0,0,0,1"
       radius="0"
       unit="px"
       method="auto"
       mode="F"
       chamfer_steps="1"
       flexible="false"
       use_knot_distance="true"
       apply_no_radius="true"
       apply_with_radius="true"
       only_selected="false"
       hide_knots="false" /></defs><g
     inkscape:groupmode="layer"
     id="layer2"
     inkscape:label="Layer 2"
     style="display:inline"><path
       id="rect3"
       style="fill:#800080;stroke:#ffffff;stroke-width:0;stroke-linejoin:round"
       d="m 0.37000326,1.8055745 c -0.0120704,0.082229 -0.0201538,0.1659796 -0.0201538,0.2516643 v 8.5855222 c 0,0.94573 0.76165924,1.70739 1.70738934,1.70739 h 8.5855222 c 0.94573,0 1.70739,-0.76166 1.70739,-1.70739 V 2.0572388 c 0,-0.2000908 -0.03601,-0.3913537 -0.0987,-0.5694743 -1.810225,2.3456167 -4.1704371,4.8715373 -5.9608769,4.8715373 -1.7055665,0 -4.0405815,-2.3009474 -5.92056883,-4.5537273 z" /><path
       id="path5"
       style="fill:#ff9955;stroke:#ffffff;stroke-width:0;stroke-linejoin:round"
       d="M 0.37000326,1.8055745 C 2.2499906,4.0583544 4.5850056,6.3593018 6.2905721,6.3593018 c 1.7904398,0 4.1506519,-2.5259206 5.9608769,-4.8715373 C 12.017806,0.82399693 11.388401,0.34984945 10.642761,0.34984945 H 2.0572388 c -0.8600455,0 -1.56608075,0.63036786 -1.68723554,1.45572505 z" /></g><g
     inkscape:label="Layer 1"
     inkscape:groupmode="layer"
     id="layer1"
     style="display:inline"><path
       d="M 3.6195276,5.9107668 H 2.4729075 A 0.76668281,0.76668281 0 0 0 1.708494,6.6751802 v 1.2842146 c 0,0.1295919 0.1006875,0.2398347 0.2301601,0.2444929 A 0.23887921,0.23887921 0 0 0 2.1862524,7.965128 V 6.7739567 a 0.0977016,0.0977016 0 0 1 0.089222,-0.098537 0.09555168,0.09555168 0 0 1 0.1018819,0.095552 V 10.222536 A 0.27471108,0.27471108 0 0 0 2.6520669,10.497247 0.27471108,0.27471108 0 0 0 2.926778,10.222536 V 8.5186111 A 0.12230616,0.12230616 0 0 1 3.038215,8.3951104 0.11943961,0.11943961 0 0 1 3.165657,8.51455 v 1.707986 a 0.27471108,0.27471108 0 0 0 0.2747113,0.274711 0.27471108,0.27471108 0 0 0 0.274711,-0.274711 V 6.7739567 a 0.0977016,0.0977016 0 0 1 0.089221,-0.098537 0.09555168,0.09555168 0 0 1 0.1018818,0.095552 v 1.1886629 c 0,0.1295919 0.1006876,0.2398348 0.23016,0.2444929 A 0.23887921,0.23887921 0 0 0 4.383941,7.965128 V 6.6751802 A 0.76668281,0.76668281 0 0 0 3.6195276,5.9107668 Z"
       id="path1"
       style="fill:#ff9955;stroke:#000000;stroke-width:0" /><path
       d="M 6.9587524,7.1770905 H 5.8121322 A 0.76668281,0.76668281 0 0 0 5.0477189,7.9415039 v 1.2842147 c 0,0.129592 0.1006874,0.2398347 0.23016,0.2444929 A 0.23887921,0.23887921 0 0 0 5.5254771,9.2314516 V 8.0402805 A 0.0977016,0.0977016 0 0 1 5.6146981,7.9417425 0.09555168,0.09555168 0 0 1 5.71658,8.0372945 V 11.48886 A 0.27471108,0.27471108 0 0 0 5.991291,11.763571 0.27471108,0.27471108 0 0 0 6.2660023,11.48886 V 9.7849348 A 0.12230616,0.12230616 0 0 1 6.3774399,9.6614342 0.11943961,0.11943961 0 0 1 6.5048819,9.7808738 V 11.48886 A 0.27471108,0.27471108 0 0 0 6.779593,11.763571 0.27471108,0.27471108 0 0 0 7.0543041,11.48886 V 8.0402805 a 0.0977016,0.0977016 0 0 1 0.089221,-0.098538 0.09555168,0.09555168 0 0 1 0.101882,0.095552 v 1.1886628 c 0,0.1295919 0.1006877,0.2398348 0.2301601,0.244493 A 0.23887921,0.23887921 0 0 0 7.7231659,9.2314516 V 7.9415039 A 0.76668281,0.76668281 0 0 0 6.9587524,7.1770905 Z"
       id="path1-3"
       style="fill:#ff9955;stroke:currentColor;stroke-width:0" /><path
       d="M 10.218439,5.9107668 H 9.0718188 A 0.76668281,0.76668281 0 0 0 8.3074054,6.6751802 v 1.2842146 c 0,0.1295919 0.1006876,0.2398347 0.2301602,0.2444929 A 0.23887921,0.23887921 0 0 0 8.7851639,7.965128 V 6.7739567 a 0.0977016,0.0977016 0 0 1 0.089221,-0.098537 0.09555168,0.09555168 0 0 1 0.1018822,0.095552 v 3.4515653 a 0.27471108,0.27471108 0 0 0 0.274711,0.274711 0.27471108,0.27471108 0 0 0 0.2747112,-0.274711 V 8.5186111 A 0.12230616,0.12230616 0 0 1 9.6371265,8.3951104 0.11943961,0.11943961 0 0 1 9.7645685,8.51455 v 1.707986 a 0.27471108,0.27471108 0 0 0 0.2747115,0.274711 0.27471108,0.27471108 0 0 0 0.274711,-0.274711 V 6.7739567 a 0.0977016,0.0977016 0 0 1 0.08922,-0.098537 0.09555168,0.09555168 0 0 1 0.101882,0.095552 v 1.1886629 c 0,0.1295919 0.100688,0.2398348 0.23016,0.2444929 a 0.23887921,0.23887921 0 0 0 0.2476,-0.2389995 V 6.6751802 A 0.76668281,0.76668281 0 0 0 10.218439,5.9107668 Z"
       id="path1-9"
       style="fill:#ff9955;stroke:currentColor;stroke-width:0" /><path
       style="fill:#000000;stroke:#ffffff;stroke-width:0"
       d="M 0.00688929,0.3142271 H 12.056935"
       id="path2" /><circle
       style="fill:#800080;stroke:none;stroke-width:0.198437;stroke-linejoin:round"
       id="path7"
       cx="6.373157"
       cy="5.0074806"
       r="0.68283826" /></g><g
     inkscape:groupmode="layer"
     id="layer3"
     inkscape:label="Layer 3"
     style="display:inline"><circle
       style="display:inline;fill:#800080;stroke:none;stroke-width:0.198437;stroke-linejoin:round"
       id="path7-2"
       cx="4.6040034"
       cy="3.4775183"
       r="0.68283826" /><circle
       style="display:inline;fill:#800080;stroke:none;stroke-width:0.198437;stroke-linejoin:round"
       id="path7-1"
       cx="9.2427435"
       cy="1.6080673"
       r="0.68283826" /><circle
       style="display:inline;fill:#800080;stroke:none;stroke-width:0.198437;stroke-linejoin:round"
       id="path7-21"
       cx="6.3413157"
       cy="1.6080673"
       r="0.68283826" /><circle
       style="display:inline;fill:#800080;stroke:none;stroke-width:0.198437;stroke-linejoin:round"
       id="path7-12"
       cx="2.7696323"
       cy="1.517869"
       r="0.68283826" /><path
       style="display:inline;fill:#800080;stroke:#800080;stroke-width:0.265;stroke-linejoin:round;stroke-dasharray:none;stroke-opacity:1"
       d="M 6.373157,5.0074806 9.2427434,1.6080673"
       id="path8" /><path
       style="display:inline;fill:#800080;stroke:#800080;stroke-width:0.264999;stroke-linejoin:round;stroke-dasharray:none;stroke-opacity:1"
       d="M 6.373157,5.0074806 4.6040034,3.4775182"
       id="path9" /><path
       style="display:inline;fill:#800080;stroke:#800080;stroke-width:0.264999;stroke-linejoin:round;stroke-dasharray:none;stroke-opacity:1"
       d="M 4.6040034,3.4775182 6.3413158,1.6080673"
       id="path10" /><path
       style="display:inline;fill:#800080;stroke:#800080;stroke-width:0.264999;stroke-linejoin:round;stroke-dasharray:none;stroke-opacity:1"
       d="M 4.6040034,3.4775182 2.866691,1.6080673"
       id="path11" /></g></svg>
